<svg xmlns="http://www.w3.org/2000/svg" xmlns:xlink="http://www.w3.org/1999/xlink" version="1.1" width="19" height="19" viewBox="0 0 19 19" xml:space="preserve">
<desc>Created with Fabric.js 5.3.0</desc>
  <defs>
</defs>
  <g transform="matrix(1 0 0 1 9.4615869159 8.1675109108)" id="zDaNVEJgzI_mCLa9uErn1"  >
<path style="stroke: rgb(0,0,0); stroke-width: 0.6; stroke-dasharray: none; stroke-linecap: butt; stroke-dashoffset: 0; stroke-linejoin: miter; stroke-miterlimit: 4; fill: rgb(255,255,255); fill-opacity: 0; fill-rule: nonzero; opacity: 1;"  transform=" translate(0, 0)" d="M 0.03841 -3.2399 L -6.83744 -3.2399 C -6.83744 -3.2399 -7.90402 -3.20758 -7.90402 -2.25412 C -7.90402 -1.30066 -7.90402 1.1072200000000003 -7.90402 1.1072200000000003 L -7.34903 3.1417400000000004 L -7.34903 3.1417400000000004 C -7.33322 3.1997000000000004 -7.28058 3.2399000000000004 -7.2205 3.2399000000000004 L 7.22853 3.2399000000000004 L 7.22853 3.2399000000000004 C 7.2757700000000005 3.2399000000000004 7.31722 3.2084300000000003 7.32992 3.1629300000000002 L 7.903560000000001 1.1072200000000003 L 7.903560000000001 -2.25412 C 7.903560000000001 -2.25412 7.963070000000001 -3.2399 6.71332 -3.2399 C 5.463570000000001 -3.2399 0.03841000000000072 -3.2399 0.03841000000000072 -3.2399 z" stroke-linecap="round" />
</g>
  <g transform="matrix(1.0121897798 0 0 1 9.4564133969 6.5447186235)" id="uJWs5AcPn9qY3Y8dcnX5c"  >
<path style="stroke: rgb(0,0,0); stroke-width: 0.5; stroke-dasharray: none; stroke-linecap: butt; stroke-dashoffset: 0; stroke-linejoin: miter; stroke-miterlimit: 4; fill: rgb(255,255,255); fill-opacity: 0; fill-rule: nonzero; opacity: 1;"  transform=" translate(0, 0)" d="M -0.02084 -0.54653 L -1.79198 -0.54653 L -1.79198 -0.54653 C -1.8428499999999999 -0.54653 -1.88408 -0.50479 -1.88408 -0.45331 L -1.88408 0.46528 L -1.88408 0.46528 C -1.88408 0.51015 -1.84815 0.54652 -1.80382 0.54652 L 1.8229700000000002 0.54652 L 1.8229700000000002 0.54652 C 1.8567200000000001 0.54652 1.8840800000000002 0.51883 1.8840800000000002 0.48467 L 1.8840800000000002 -0.5326200000000001 L 1.8840800000000002 -0.5326200000000001 C 1.8840800000000002 -0.5403000000000001 1.87793 -0.5465300000000001 1.8703400000000001 -0.5465300000000001 z" stroke-linecap="round" />
</g>
  <g transform="matrix(1 0 0 1 9.4853336973 9.2745391416)" id="If7raj81GJk8mkqGGXp8T"  >
<path style="stroke: rgb(0,0,0); stroke-width: 0.5; stroke-dasharray: none; stroke-linecap: butt; stroke-dashoffset: 0; stroke-linejoin: miter; stroke-miterlimit: 4; fill: rgb(255,255,255); fill-opacity: 0; fill-rule: nonzero; opacity: 1;"  transform=" translate(0, 0)" d="M -7.81358 0 L 7.81357 0" stroke-linecap="round" />
</g>
  <g transform="matrix(1 0 0 1 9.4615869159 10.7716800022)" id="LsSATtQi8p2yISIgjnGbQ"  >
<path style="stroke: rgb(0,0,0); stroke-width: 0.5; stroke-dasharray: none; stroke-linecap: butt; stroke-dashoffset: 0; stroke-linejoin: miter; stroke-miterlimit: 4; fill: rgb(255,255,255); fill-opacity: 0; fill-rule: nonzero; opacity: 1;"  transform=" translate(0, 0)" d="M -6.27154 0.41351 L -6.27154 -0.32417999999999997 C -6.27154 -0.34786999999999996 -6.26213 -0.37059 -6.24538 -0.38733999999999996 C -6.22863 -0.40408999999999995 -6.20591 -0.4135 -6.18222 -0.4135 L 6.145930000000001 -0.4135 L 6.145930000000001 -0.4135 C 6.179240000000001 -0.4135 6.211190000000001 -0.40026999999999996 6.23474 -0.37671 C 6.2583 -0.35314999999999996 6.27153 -0.32121 6.27153 -0.2879 L 6.27153 0.41351" stroke-linecap="round" />
</g>
</svg>
