<svg xmlns="http://www.w3.org/2000/svg" xmlns:xlink="http://www.w3.org/1999/xlink" version="1.1" width="256" height="256" viewBox="0 0 256 256" xml:space="preserve">

<defs>
</defs>
<g style="stroke: none; stroke-width: 0; stroke-dasharray: none; stroke-linecap: butt; stroke-linejoin: miter; stroke-miterlimit: 10; fill: none; fill-rule: nonzero; opacity: 1;" transform="translate(1.4065934065934016 1.4065934065934016) scale(2.81 2.81)" >
	<path d="M 83.239 64.768 l -6.275 -3.623 l 4.364 -1.301 c 1.059 -0.315 1.661 -1.43 1.346 -2.488 c -0.315 -1.06 -1.433 -1.661 -2.488 -1.346 l -7.99 2.382 l -7.192 -4.152 l 12.723 -3.791 c 1.059 -0.315 1.661 -1.43 1.346 -2.488 c -0.316 -1.06 -1.432 -1.66 -2.488 -1.346 l -16.349 4.871 L 49 45 l 11.234 -6.486 l 16.349 4.872 c 0.19 0.057 0.383 0.084 0.572 0.084 c 0.861 0 1.657 -0.562 1.916 -1.429 c 0.315 -1.059 -0.287 -2.172 -1.346 -2.488 l -12.724 -3.791 l 7.193 -4.153 l 7.991 2.381 c 0.19 0.057 0.383 0.084 0.572 0.084 c 0.861 0 1.657 -0.562 1.916 -1.429 c 0.315 -1.059 -0.287 -2.172 -1.346 -2.488 l -4.365 -1.301 l 6.276 -3.624 c 0.957 -0.552 1.284 -1.775 0.732 -2.732 c -0.554 -0.957 -1.777 -1.287 -2.732 -0.732 l -6.276 3.624 l 1.056 -4.431 c 0.256 -1.074 -0.407 -2.153 -1.481 -2.409 c -1.07 -0.254 -2.152 0.407 -2.409 1.481 l -1.934 8.111 l -7.193 4.153 l 3.078 -12.915 c 0.256 -1.075 -0.407 -2.153 -1.481 -2.409 c -1.07 -0.253 -2.152 0.407 -2.409 1.481 L 58.234 35.05 L 47 41.536 V 28.564 l 12.394 -11.723 c 0.803 -0.759 0.838 -2.025 0.079 -2.828 c -0.76 -0.802 -2.026 -0.837 -2.827 -0.079 L 47 23.058 v -8.305 l 6.058 -5.73 c 0.803 -0.759 0.838 -2.025 0.079 -2.828 c -0.76 -0.802 -2.024 -0.838 -2.827 -0.079 L 47 9.247 V 2 c 0 -1.104 -0.896 -2 -2 -2 s -2 0.896 -2 2 v 7.247 l -3.309 -3.13 c -0.802 -0.759 -2.068 -0.722 -2.828 0.079 c -0.759 0.803 -0.724 2.068 0.079 2.828 L 43 14.753 v 8.305 l -9.645 -9.124 c -0.802 -0.758 -2.069 -0.723 -2.828 0.079 c -0.759 0.803 -0.724 2.068 0.079 2.828 L 43 28.565 v 12.971 L 31.766 35.05 L 27.81 18.455 c -0.256 -1.074 -1.333 -1.737 -2.409 -1.481 c -1.074 0.256 -1.738 1.334 -1.481 2.409 l 3.079 12.915 l -7.193 -4.153 l -1.933 -8.111 c -0.256 -1.074 -1.333 -1.735 -2.409 -1.481 c -1.074 0.256 -1.738 1.334 -1.481 2.409 l 1.056 4.431 l -6.276 -3.624 c -0.957 -0.554 -2.18 -0.225 -2.732 0.732 c -0.552 0.957 -0.225 2.18 0.732 2.732 l 6.276 3.624 l -4.365 1.301 c -1.059 0.315 -1.661 1.429 -1.345 2.488 c 0.258 0.868 1.054 1.429 1.916 1.429 c 0.189 0 0.382 -0.027 0.572 -0.084 l 7.991 -2.381 l 7.193 4.153 l -12.724 3.791 c -1.059 0.315 -1.661 1.429 -1.345 2.488 c 0.258 0.868 1.054 1.429 1.916 1.429 c 0.189 0 0.382 -0.027 0.572 -0.084 l 16.349 -4.872 L 41 45 l -11.233 6.486 l -16.35 -4.871 c -1.059 -0.314 -2.173 0.286 -2.488 1.346 c -0.315 1.059 0.287 2.173 1.345 2.488 l 12.723 3.791 l -7.193 4.153 L 9.814 56.01 c -1.058 -0.315 -2.172 0.286 -2.488 1.346 c -0.316 1.059 0.287 2.173 1.345 2.488 l 4.365 1.301 l -6.275 3.623 C 5.804 65.32 5.477 66.543 6.029 67.5 c 0.37 0.642 1.042 1 1.734 1 c 0.339 0 0.683 -0.086 0.998 -0.268 l 6.276 -3.624 l -1.056 4.43 c -0.256 1.074 0.407 2.153 1.481 2.409 c 0.156 0.037 0.312 0.055 0.465 0.055 c 0.905 0 1.725 -0.618 1.944 -1.536 l 1.933 -8.111 l 7.193 -4.153 l -3.079 12.914 c -0.256 1.074 0.407 2.153 1.481 2.409 c 0.156 0.037 0.312 0.055 0.465 0.055 c 0.905 0 1.725 -0.618 1.944 -1.536 l 3.956 -16.595 L 43 48.464 v 12.971 L 30.606 73.159 c -0.802 0.759 -0.837 2.025 -0.079 2.827 c 0.394 0.416 0.923 0.626 1.454 0.626 c 0.493 0 0.987 -0.182 1.374 -0.547 L 43 66.942 v 8.305 l -6.058 5.731 c -0.802 0.759 -0.837 2.025 -0.079 2.827 c 0.394 0.416 0.923 0.626 1.454 0.626 c 0.493 0 0.987 -0.182 1.374 -0.547 L 43 80.753 V 88 c 0 1.104 0.896 2 2 2 s 2 -0.896 2 -2 v -7.247 l 3.31 3.13 c 0.387 0.365 0.881 0.547 1.374 0.547 c 0.53 0 1.06 -0.21 1.453 -0.626 c 0.759 -0.802 0.724 -2.068 -0.079 -2.827 L 47 75.247 v -8.306 l 9.646 9.124 c 0.387 0.365 0.881 0.547 1.374 0.547 c 0.53 0 1.06 -0.21 1.453 -0.626 c 0.759 -0.802 0.724 -2.068 -0.079 -2.827 L 47 61.436 V 48.464 l 11.234 6.486 l 3.956 16.595 c 0.219 0.918 1.039 1.536 1.943 1.536 c 0.154 0 0.31 -0.018 0.466 -0.055 c 1.074 -0.256 1.737 -1.335 1.481 -2.409 l -3.078 -12.914 l 7.193 4.153 l 1.934 8.111 c 0.219 0.919 1.039 1.536 1.943 1.536 c 0.154 0 0.31 -0.018 0.466 -0.055 c 1.074 -0.256 1.738 -1.335 1.481 -2.409 l -1.056 -4.43 l 6.276 3.624 c 0.315 0.182 0.659 0.268 0.998 0.268 c 0.691 0 1.363 -0.358 1.734 -1 C 84.523 66.543 84.196 65.32 83.239 64.768 z" style="stroke: none; stroke-width: 1; stroke-dasharray: none; stroke-linecap: butt; stroke-linejoin: miter; stroke-miterlimit: 10; fill: rgb(0,0,0); fill-rule: nonzero; opacity: 1;" transform=" matrix(1 0 0 1 0 0) " stroke-linecap="round" />
</g>
</svg>